# xmcd CD database file
#
# Track frame offsets:
#	150
#	34890
#	67850
#	116037
#
# Disc length: 1970 seconds
#
# Revision: 33
# Processed by: cddbd v1.5.2PL0 Copyright (c) Steve Scherf et al.
# Submitted via: CDex 1.81
#
DISCID=2f07b004
DTITLE=John Coltrane - A Love Supreme
DYEAR=1965
DGENRE=Jazz
TTITLE0=Acknowledgement
TTITLE1=Resolution
TTITLE2=Pursuance
TTITLE3=Psalm
EXTD=Love Supreme by John Coltrane (Original]\nJohn Coltrane(ts]\nMcCoy Tyner(p]\nJimmy Garrison(b]\nElvin Jones(ds]\nDecember 9, 1964\nRudy Van Gelder Studio, Englewood Cliffs, New Jersey\nCo.YP-8527-AI ( Imp.]\nUCCI-1007, 2002.10.23 YEAR: 1965
EXTT0=
EXTT1=
EXTT2=
EXTT3=
PLAYORDER=
